<svg width="2109" height="785" viewBox="0 0 2109 785" fill="none" xmlns="http://www.w3.org/2000/svg">
<g filter="url(#filter0_ii_2_14)">
<path d="M780 396C780 785 780 785 391 785C2 785 2 785 2 396C2 7.00003 2 7 391 7C780 7 780 7.00003 780 396Z" fill="url(#paint0_radial_2_14)"/>
<path d="M681.5 361.544C639.5 403.48 535.93 550.044 389.956 550.044C243.983 550.044 128.569 399.342 96.5 361.544C157 377.544 310 404.044 389.956 404.044C469.912 404.044 614.5 380.044 681.5 361.544Z" fill="url(#paint1_radial_2_14)"/>
<path d="M389.956 408.044C465.287 408.044 597.288 386.91 668.953 368.97C664.642 373.69 659.9 379.034 654.76 384.827C648.934 391.393 642.597 398.535 635.799 405.995C617.955 425.574 596.639 447.686 572.131 468.469C523.057 510.085 461.572 546.044 389.956 546.044C318.334 546.044 253.882 509.045 203.068 466.89C159.365 430.633 126.155 390.915 107.465 368.429C174.451 384.58 314.399 408.044 389.956 408.044Z" stroke="#54003D" stroke-opacity="0.85" stroke-width="8"/>
<path d="M15 454.689C15 326.559 175.161 514.689 390 514.689C604.839 514.689 769 316.87 769 445C769 573.13 901.5 762 390 776.689C-112.793 791.128 15 582.819 15 454.689Z" fill="url(#paint2_radial_2_14)" fill-opacity="0.44"/>
<path d="M759 269C759 397.13 605.839 299.5 391 299.5C176.161 299.5 18 397.13 18 269C18 140.87 -22.5 -9.99999 391 7.00002C759 -36.5 759 140.87 759 269Z" fill="url(#paint3_radial_2_14)" fill-opacity="0.44"/>
<path d="M629.851 338.914C647.167 349.141 664.124 357.896 680.108 362.672C670.204 364.458 659.28 366.469 647.617 368.615C644.119 369.259 640.555 369.915 636.933 370.581C610.758 375.391 581.471 380.722 551.837 385.693C492.471 395.652 432.034 404.108 392.5 404.108C355.643 404.108 303.684 397.286 247.542 388.151C214.068 382.705 179.282 376.468 145.44 370.4C131.077 367.825 116.884 365.28 103.032 362.839C120.031 358.15 137.826 349.442 155.848 339.207C168.905 331.791 182.251 323.469 195.647 315.116C196.233 314.751 196.818 314.385 197.404 314.02C211.418 305.283 225.487 296.546 239.49 288.697C267.593 272.943 294.907 261.078 320.246 259.863C345.193 258.667 368.599 267.776 389.316 295.018L392.482 299.182L395.671 295.036C416.99 267.314 440.959 257.972 466.292 259.088C492 260.22 519.516 272.14 547.515 287.998C561.466 295.9 575.415 304.705 589.215 313.513C590.836 314.547 592.455 315.582 594.072 316.615C606.192 324.36 618.188 332.026 629.851 338.914Z" fill="url(#paint4_radial_2_14)" stroke="#920069" stroke-width="8"/>
</g>
<g filter="url(#filter1_d_2_14)">
<mask id="path-8-outside-1_2_14" maskUnits="userSpaceOnUse" x="851" y="238" width="1203" height="390" fill="black">
<rect fill="white" x="851" y="238" width="1203" height="390"/>
<path d="M855.118 542V251.091H953.413C976.235 251.091 994.891 255.21 1009.38 263.449C1023.96 271.593 1034.76 282.625 1041.77 296.545C1048.77 310.466 1052.28 325.996 1052.28 343.136C1052.28 360.277 1048.77 375.854 1041.77 389.869C1034.85 403.884 1024.15 415.059 1009.66 423.392C995.175 431.631 976.614 435.75 953.982 435.75H883.527V404.5H952.845C968.47 404.5 981.018 401.801 990.487 396.403C999.957 391.006 1006.82 383.714 1011.08 374.528C1015.44 365.248 1017.62 354.784 1017.62 343.136C1017.62 331.489 1015.44 321.072 1011.08 311.886C1006.82 302.701 999.91 295.504 990.345 290.295C980.781 284.992 968.091 282.341 952.277 282.341H890.345V542H855.118ZM1126.07 623.818C1120.39 623.818 1115.32 623.345 1110.87 622.398C1106.42 621.545 1103.34 620.693 1101.64 619.841L1110.16 590.295C1118.3 592.379 1125.5 593.136 1131.75 592.568C1138 592 1143.54 589.206 1148.37 584.188C1153.29 579.263 1157.79 571.261 1161.87 560.182L1168.12 543.136L1087.43 323.818H1123.8L1184.02 497.682H1186.3L1246.52 323.818H1282.89L1190.27 573.818C1186.11 585.087 1180.95 594.415 1174.79 601.801C1168.64 609.282 1161.49 614.822 1153.34 618.42C1145.29 622.019 1136.2 623.818 1126.07 623.818ZM1331.68 542V251.091H1366.91V510.75H1502.13V542H1331.68ZM1552.13 542V323.818H1585.66V542H1552.13ZM1569.18 287.455C1562.65 287.455 1557.01 285.229 1552.28 280.778C1547.64 276.328 1545.32 270.977 1545.32 264.727C1545.32 258.477 1547.64 253.127 1552.28 248.676C1557.01 244.225 1562.65 242 1569.18 242C1575.71 242 1581.3 244.225 1585.94 248.676C1590.68 253.127 1593.04 258.477 1593.04 264.727C1593.04 270.977 1590.68 276.328 1585.94 280.778C1581.3 285.229 1575.71 287.455 1569.18 287.455ZM1647.06 623.818V323.818H1679.44V358.477H1683.42C1685.88 354.689 1689.29 349.86 1693.65 343.989C1698.1 338.023 1704.44 332.72 1712.68 328.08C1721.02 323.345 1732.28 320.977 1746.49 320.977C1764.86 320.977 1781.05 325.57 1795.07 334.756C1809.08 343.941 1820.02 356.962 1827.88 373.818C1835.74 390.674 1839.67 410.561 1839.67 433.477C1839.67 456.583 1835.74 476.612 1827.88 493.562C1820.02 510.419 1809.13 523.487 1795.21 532.767C1781.29 541.953 1765.24 546.545 1747.06 546.545C1733.04 546.545 1721.82 544.225 1713.39 539.585C1704.96 534.85 1698.48 529.5 1693.93 523.534C1689.39 517.473 1685.88 512.455 1683.42 508.477H1680.58V623.818H1647.06ZM1680.01 432.909C1680.01 449.386 1682.43 463.922 1687.26 476.517C1692.09 489.017 1699.14 498.818 1708.42 505.92C1717.7 512.928 1729.06 516.432 1742.51 516.432C1756.53 516.432 1768.22 512.739 1777.6 505.352C1787.07 497.871 1794.17 487.833 1798.9 475.239C1803.73 462.549 1806.15 448.439 1806.15 432.909C1806.15 417.568 1803.78 403.742 1799.05 391.432C1794.41 379.027 1787.35 369.225 1777.88 362.028C1768.51 354.737 1756.72 351.091 1742.51 351.091C1728.88 351.091 1717.42 354.547 1708.14 361.46C1698.86 368.278 1691.85 377.843 1687.11 390.153C1682.38 402.369 1680.01 416.621 1680.01 432.909ZM2045.35 372.682L2015.24 381.205C2013.34 376.186 2010.55 371.309 2006.86 366.574C2003.26 361.744 1998.34 357.767 1992.09 354.642C1985.84 351.517 1977.83 349.955 1968.08 349.955C1954.73 349.955 1943.6 353.032 1934.7 359.188C1925.89 365.248 1921.49 372.966 1921.49 382.341C1921.49 390.674 1924.52 397.256 1930.58 402.085C1936.64 406.915 1946.11 410.939 1958.99 414.159L1991.38 422.114C2010.88 426.848 2025.42 434.093 2034.98 443.847C2044.55 453.506 2049.33 465.958 2049.33 481.205C2049.33 493.705 2045.73 504.879 2038.53 514.727C2031.43 524.576 2021.49 532.341 2008.7 538.023C1995.92 543.705 1981.05 546.545 1964.1 546.545C1941.85 546.545 1923.43 541.716 1908.85 532.057C1894.26 522.398 1885.03 508.288 1881.15 489.727L1912.97 481.773C1916 493.515 1921.73 502.322 1930.15 508.193C1938.68 514.064 1949.8 517 1963.53 517C1979.16 517 1991.56 513.686 2000.75 507.057C2010.03 500.333 2014.67 492.284 2014.67 482.909C2014.67 475.333 2012.02 468.989 2006.72 463.875C2001.41 458.667 1993.27 454.784 1982.28 452.227L1945.92 443.705C1925.94 438.97 1911.26 431.631 1901.89 421.688C1892.61 411.65 1887.97 399.102 1887.97 384.045C1887.97 371.735 1891.42 360.845 1898.34 351.375C1905.34 341.905 1914.86 334.472 1926.89 329.074C1939.01 323.676 1952.74 320.977 1968.08 320.977C1989.67 320.977 2006.62 325.712 2018.93 335.182C2031.34 344.652 2040.14 357.152 2045.35 372.682Z"/>
</mask>
<path d="M855.118 542V251.091H953.413C976.235 251.091 994.891 255.21 1009.38 263.449C1023.96 271.593 1034.76 282.625 1041.77 296.545C1048.77 310.466 1052.28 325.996 1052.28 343.136C1052.28 360.277 1048.77 375.854 1041.77 389.869C1034.85 403.884 1024.15 415.059 1009.66 423.392C995.175 431.631 976.614 435.75 953.982 435.75H883.527V404.5H952.845C968.47 404.5 981.018 401.801 990.487 396.403C999.957 391.006 1006.82 383.714 1011.08 374.528C1015.44 365.248 1017.62 354.784 1017.62 343.136C1017.62 331.489 1015.44 321.072 1011.08 311.886C1006.82 302.701 999.91 295.504 990.345 290.295C980.781 284.992 968.091 282.341 952.277 282.341H890.345V542H855.118ZM1126.07 623.818C1120.39 623.818 1115.32 623.345 1110.87 622.398C1106.42 621.545 1103.34 620.693 1101.64 619.841L1110.16 590.295C1118.3 592.379 1125.5 593.136 1131.75 592.568C1138 592 1143.54 589.206 1148.37 584.188C1153.29 579.263 1157.79 571.261 1161.87 560.182L1168.12 543.136L1087.43 323.818H1123.8L1184.02 497.682H1186.3L1246.52 323.818H1282.89L1190.27 573.818C1186.11 585.087 1180.95 594.415 1174.79 601.801C1168.64 609.282 1161.49 614.822 1153.34 618.42C1145.29 622.019 1136.2 623.818 1126.07 623.818ZM1331.68 542V251.091H1366.91V510.75H1502.13V542H1331.68ZM1552.13 542V323.818H1585.66V542H1552.13ZM1569.18 287.455C1562.65 287.455 1557.01 285.229 1552.28 280.778C1547.64 276.328 1545.32 270.977 1545.32 264.727C1545.32 258.477 1547.64 253.127 1552.28 248.676C1557.01 244.225 1562.65 242 1569.18 242C1575.71 242 1581.3 244.225 1585.94 248.676C1590.68 253.127 1593.04 258.477 1593.04 264.727C1593.04 270.977 1590.68 276.328 1585.94 280.778C1581.3 285.229 1575.71 287.455 1569.18 287.455ZM1647.06 623.818V323.818H1679.44V358.477H1683.42C1685.88 354.689 1689.29 349.86 1693.65 343.989C1698.1 338.023 1704.44 332.72 1712.68 328.08C1721.02 323.345 1732.28 320.977 1746.49 320.977C1764.86 320.977 1781.05 325.57 1795.07 334.756C1809.08 343.941 1820.02 356.962 1827.88 373.818C1835.74 390.674 1839.67 410.561 1839.67 433.477C1839.67 456.583 1835.74 476.612 1827.88 493.562C1820.02 510.419 1809.13 523.487 1795.21 532.767C1781.29 541.953 1765.24 546.545 1747.06 546.545C1733.04 546.545 1721.82 544.225 1713.39 539.585C1704.96 534.85 1698.48 529.5 1693.93 523.534C1689.39 517.473 1685.88 512.455 1683.42 508.477H1680.58V623.818H1647.06ZM1680.01 432.909C1680.01 449.386 1682.43 463.922 1687.26 476.517C1692.09 489.017 1699.14 498.818 1708.42 505.92C1717.7 512.928 1729.06 516.432 1742.51 516.432C1756.53 516.432 1768.22 512.739 1777.6 505.352C1787.07 497.871 1794.17 487.833 1798.9 475.239C1803.73 462.549 1806.15 448.439 1806.15 432.909C1806.15 417.568 1803.78 403.742 1799.05 391.432C1794.41 379.027 1787.35 369.225 1777.88 362.028C1768.51 354.737 1756.72 351.091 1742.51 351.091C1728.88 351.091 1717.42 354.547 1708.14 361.46C1698.86 368.278 1691.85 377.843 1687.11 390.153C1682.38 402.369 1680.01 416.621 1680.01 432.909ZM2045.35 372.682L2015.24 381.205C2013.34 376.186 2010.55 371.309 2006.86 366.574C2003.26 361.744 1998.34 357.767 1992.09 354.642C1985.84 351.517 1977.83 349.955 1968.08 349.955C1954.73 349.955 1943.6 353.032 1934.7 359.188C1925.89 365.248 1921.49 372.966 1921.49 382.341C1921.49 390.674 1924.52 397.256 1930.58 402.085C1936.64 406.915 1946.11 410.939 1958.99 414.159L1991.38 422.114C2010.88 426.848 2025.42 434.093 2034.98 443.847C2044.55 453.506 2049.33 465.958 2049.33 481.205C2049.33 493.705 2045.73 504.879 2038.53 514.727C2031.43 524.576 2021.49 532.341 2008.7 538.023C1995.92 543.705 1981.05 546.545 1964.1 546.545C1941.85 546.545 1923.43 541.716 1908.85 532.057C1894.26 522.398 1885.03 508.288 1881.15 489.727L1912.97 481.773C1916 493.515 1921.73 502.322 1930.15 508.193C1938.68 514.064 1949.8 517 1963.53 517C1979.16 517 1991.56 513.686 2000.75 507.057C2010.03 500.333 2014.67 492.284 2014.67 482.909C2014.67 475.333 2012.02 468.989 2006.72 463.875C2001.41 458.667 1993.27 454.784 1982.28 452.227L1945.92 443.705C1925.94 438.97 1911.26 431.631 1901.89 421.688C1892.61 411.65 1887.97 399.102 1887.97 384.045C1887.97 371.735 1891.42 360.845 1898.34 351.375C1905.34 341.905 1914.86 334.472 1926.89 329.074C1939.01 323.676 1952.74 320.977 1968.08 320.977C1989.67 320.977 2006.62 325.712 2018.93 335.182C2031.34 344.652 2040.14 357.152 2045.35 372.682Z" fill="url(#paint5_linear_2_14)"/>
<path d="M855.118 542H851.118V546H855.118V542ZM855.118 251.091V247.091H851.118V251.091H855.118ZM1009.38 263.449L1007.4 266.926L1007.42 266.934L1007.43 266.941L1009.38 263.449ZM1041.77 296.545L1038.19 298.344L1041.77 296.545ZM1041.77 389.869L1038.19 388.08L1038.18 388.09L1038.18 388.1L1041.77 389.869ZM1009.66 423.392L1011.64 426.869L1011.65 426.864L1011.66 426.859L1009.66 423.392ZM883.527 435.75H879.527V439.75H883.527V435.75ZM883.527 404.5V400.5H879.527V404.5H883.527ZM990.487 396.403L988.506 392.928L990.487 396.403ZM1011.08 374.528L1007.46 372.829L1007.46 372.837L1007.46 372.845L1011.08 374.528ZM1011.08 311.886L1007.46 313.57L1007.46 313.585L1007.47 313.6L1011.08 311.886ZM990.345 290.295L988.406 293.794L988.419 293.801L988.432 293.808L990.345 290.295ZM890.345 282.341V278.341H886.345V282.341H890.345ZM890.345 542V546H894.345V542H890.345ZM859.118 542V251.091H851.118V542H859.118ZM855.118 255.091H953.413V247.091H855.118V255.091ZM953.413 255.091C975.787 255.091 993.698 259.134 1007.4 266.926L1011.36 259.972C996.083 251.287 976.684 247.091 953.413 247.091V255.091ZM1007.43 266.941C1021.37 274.725 1031.57 285.19 1038.19 298.344L1045.34 294.747C1037.95 280.06 1026.56 268.461 1011.33 259.957L1007.43 266.941ZM1038.19 298.344C1044.89 311.653 1048.28 326.558 1048.28 343.136H1056.28C1056.28 325.435 1052.65 309.279 1045.34 294.747L1038.19 298.344ZM1048.28 343.136C1048.28 359.715 1044.89 374.671 1038.19 388.08L1045.34 391.658C1052.65 377.037 1056.28 360.838 1056.28 343.136H1048.28ZM1038.18 388.1C1031.64 401.353 1021.52 411.958 1007.67 419.925L1011.66 426.859C1026.78 418.159 1038.06 406.416 1045.35 391.639L1038.18 388.1ZM1007.69 419.915C993.978 427.71 976.159 431.75 953.982 431.75V439.75C977.069 439.75 996.372 435.552 1011.64 426.869L1007.69 419.915ZM953.982 431.75H883.527V439.75H953.982V431.75ZM887.527 435.75V404.5H879.527V435.75H887.527ZM883.527 408.5H952.845V400.5H883.527V408.5ZM952.845 408.5C968.882 408.5 982.189 405.738 992.468 399.879L988.506 392.928C979.846 397.865 968.059 400.5 952.845 400.5V408.5ZM992.468 399.879C1002.6 394.102 1010.07 386.21 1014.71 376.212L1007.46 372.845C1003.57 381.218 997.312 387.909 988.506 392.928L992.468 399.879ZM1014.7 376.228C1019.34 366.348 1021.62 355.291 1021.62 343.136H1013.62C1013.62 354.277 1011.54 364.148 1007.46 372.829L1014.7 376.228ZM1021.62 343.136C1021.62 330.982 1019.34 319.967 1014.7 310.172L1007.47 313.6C1011.54 322.177 1013.62 331.995 1013.62 343.136H1021.62ZM1014.71 310.203C1010.06 300.179 1002.52 292.368 992.258 286.783L988.432 293.808C997.304 298.639 1003.58 305.222 1007.46 313.57L1014.71 310.203ZM992.285 286.797C981.921 281.051 968.487 278.341 952.277 278.341V286.341C967.696 286.341 979.641 288.934 988.406 293.794L992.285 286.797ZM952.277 278.341H890.345V286.341H952.277V278.341ZM886.345 282.341V542H894.345V282.341H886.345ZM890.345 538H855.118V546H890.345V538ZM1110.87 622.398L1111.7 618.485L1111.66 618.477L1111.62 618.469L1110.87 622.398ZM1101.64 619.841L1097.79 618.732L1096.87 621.93L1099.85 623.419L1101.64 619.841ZM1110.16 590.295L1111.15 586.42L1107.39 585.459L1106.32 589.187L1110.16 590.295ZM1131.75 592.568L1131.39 588.585L1131.75 592.568ZM1148.37 584.188L1145.54 581.359L1145.52 581.386L1145.49 581.414L1148.37 584.188ZM1161.87 560.182L1165.62 561.562L1165.62 561.559L1161.87 560.182ZM1168.12 543.136L1171.87 544.513L1172.38 543.134L1171.87 541.755L1168.12 543.136ZM1087.43 323.818V319.818H1081.7L1083.68 325.199L1087.43 323.818ZM1123.8 323.818L1127.58 322.509L1126.64 319.818H1123.8V323.818ZM1184.02 497.682L1180.24 498.991L1181.18 501.682H1184.02V497.682ZM1186.3 497.682V501.682H1189.14L1190.08 498.991L1186.3 497.682ZM1246.52 323.818V319.818H1243.68L1242.74 322.509L1246.52 323.818ZM1282.89 323.818L1286.64 325.208L1288.64 319.818H1282.89V323.818ZM1190.27 573.818L1186.52 572.429L1186.52 572.431L1190.27 573.818ZM1174.79 601.801L1171.72 599.24L1171.71 599.25L1171.7 599.26L1174.79 601.801ZM1153.34 618.42L1151.73 614.762L1151.72 614.765L1151.71 614.769L1153.34 618.42ZM1126.07 619.818C1120.6 619.818 1115.82 619.362 1111.7 618.485L1110.04 626.31C1114.82 627.328 1120.17 627.818 1126.07 627.818V619.818ZM1111.62 618.469C1107.17 617.617 1104.59 616.844 1103.43 616.263L1099.85 623.419C1102.1 624.543 1105.67 625.474 1110.12 626.326L1111.62 618.469ZM1105.48 620.95L1114 591.404L1106.32 589.187L1097.79 618.732L1105.48 620.95ZM1109.17 594.171C1117.61 596.331 1125.28 597.173 1132.11 596.552L1131.39 588.585C1125.72 589.1 1118.99 588.427 1111.15 586.42L1109.17 594.171ZM1132.11 596.552C1139.43 595.887 1145.83 592.592 1151.25 586.961L1145.49 581.414C1141.25 585.821 1136.57 588.113 1131.39 588.585L1132.11 596.552ZM1151.2 587.016C1156.72 581.491 1161.47 572.858 1165.62 561.562L1158.11 558.802C1154.12 569.665 1149.87 577.035 1145.54 581.359L1151.2 587.016ZM1165.62 561.559L1171.87 544.513L1164.36 541.759L1158.11 558.805L1165.62 561.559ZM1171.87 541.755L1091.19 322.437L1083.68 325.199L1164.36 544.517L1171.87 541.755ZM1087.43 327.818H1123.8V319.818H1087.43V327.818ZM1120.02 325.127L1180.24 498.991L1187.8 496.373L1127.58 322.509L1120.02 325.127ZM1184.02 501.682H1186.3V493.682H1184.02V501.682ZM1190.08 498.991L1250.3 325.127L1242.74 322.509L1182.52 496.373L1190.08 498.991ZM1246.52 327.818H1282.89V319.818H1246.52V327.818ZM1279.14 322.429L1186.52 572.429L1194.03 575.208L1286.64 325.208L1279.14 322.429ZM1186.52 572.431C1182.48 583.375 1177.52 592.279 1171.72 599.24L1177.86 604.362C1184.37 596.551 1189.74 586.799 1194.03 575.205L1186.52 572.431ZM1171.7 599.26C1165.91 606.302 1159.25 611.437 1151.73 614.762L1154.96 622.079C1163.72 618.207 1171.36 612.263 1177.88 604.343L1171.7 599.26ZM1151.71 614.769C1144.25 618.106 1135.72 619.818 1126.07 619.818V627.818C1136.68 627.818 1146.34 625.932 1154.97 622.072L1151.71 614.769ZM1331.68 542H1327.68V546H1331.68V542ZM1331.68 251.091V247.091H1327.68V251.091H1331.68ZM1366.91 251.091H1370.91V247.091H1366.91V251.091ZM1366.91 510.75H1362.91V514.75H1366.91V510.75ZM1502.13 510.75H1506.13V506.75H1502.13V510.75ZM1502.13 542V546H1506.13V542H1502.13ZM1335.68 542V251.091H1327.68V542H1335.68ZM1331.68 255.091H1366.91V247.091H1331.68V255.091ZM1362.91 251.091V510.75H1370.91V251.091H1362.91ZM1366.91 514.75H1502.13V506.75H1366.91V514.75ZM1498.13 510.75V542H1506.13V510.75H1498.13ZM1502.13 538H1331.68V546H1502.13V538ZM1552.13 542H1548.13V546H1552.13V542ZM1552.13 323.818V319.818H1548.13V323.818H1552.13ZM1585.66 323.818H1589.66V319.818H1585.66V323.818ZM1585.66 542V546H1589.66V542H1585.66ZM1552.28 280.778L1549.51 283.665L1549.52 283.679L1549.54 283.693L1552.28 280.778ZM1552.28 248.676L1549.54 245.762L1549.52 245.775L1549.51 245.789L1552.28 248.676ZM1585.94 248.676L1583.17 251.563L1583.19 251.577L1583.2 251.591L1585.94 248.676ZM1585.94 280.778L1583.2 277.864L1583.19 277.878L1583.17 277.892L1585.94 280.778ZM1556.13 542V323.818H1548.13V542H1556.13ZM1552.13 327.818H1585.66V319.818H1552.13V327.818ZM1581.66 323.818V542H1589.66V323.818H1581.66ZM1585.66 538H1552.13V546H1585.66V538ZM1569.18 283.455C1563.66 283.455 1559.01 281.613 1555.02 277.864L1549.54 283.693C1555.02 288.845 1561.63 291.455 1569.18 291.455V283.455ZM1555.05 277.892C1551.17 274.171 1549.32 269.853 1549.32 264.727H1541.32C1541.32 272.102 1544.11 278.484 1549.51 283.665L1555.05 277.892ZM1549.32 264.727C1549.32 259.602 1551.17 255.284 1555.05 251.563L1549.51 245.789C1544.11 250.97 1541.32 257.353 1541.32 264.727H1549.32ZM1555.02 251.591C1559.01 247.841 1563.66 246 1569.18 246V238C1561.63 238 1555.02 240.609 1549.54 245.762L1555.02 251.591ZM1569.18 246C1574.7 246 1579.29 247.839 1583.17 251.563L1588.71 245.789C1583.31 240.611 1576.73 238 1569.18 238V246ZM1583.2 251.591C1587.17 255.319 1589.04 259.63 1589.04 264.727H1597.04C1597.04 257.325 1594.18 250.935 1588.68 245.762L1583.2 251.591ZM1589.04 264.727C1589.04 269.825 1587.17 274.135 1583.2 277.864L1588.68 283.693C1594.18 278.52 1597.04 272.13 1597.04 264.727H1589.04ZM1583.17 277.892C1579.29 281.615 1574.7 283.455 1569.18 283.455V291.455C1576.73 291.455 1583.31 288.843 1588.71 283.665L1583.17 277.892ZM1647.06 623.818H1643.06V627.818H1647.06V623.818ZM1647.06 323.818V319.818H1643.06V323.818H1647.06ZM1679.44 323.818H1683.44V319.818H1679.44V323.818ZM1679.44 358.477H1675.44V362.477H1679.44V358.477ZM1683.42 358.477V362.477H1685.59L1686.77 360.657L1683.42 358.477ZM1693.65 343.989L1690.44 341.597L1690.44 341.605L1693.65 343.989ZM1712.68 328.08L1714.64 331.565L1714.65 331.561L1714.66 331.557L1712.68 328.08ZM1795.07 334.756L1797.26 331.41L1795.07 334.756ZM1827.88 373.818L1831.51 372.128L1827.88 373.818ZM1827.88 493.562L1831.51 495.253L1831.51 495.245L1827.88 493.562ZM1795.21 532.767L1797.41 536.106L1797.42 536.1L1797.43 536.095L1795.21 532.767ZM1713.39 539.585L1711.43 543.073L1711.45 543.081L1711.46 543.089L1713.39 539.585ZM1693.93 523.534L1690.73 525.934L1690.74 525.946L1690.75 525.958L1693.93 523.534ZM1683.42 508.477L1686.82 506.372L1685.65 504.477H1683.42V508.477ZM1680.58 508.477V504.477H1676.58V508.477H1680.58ZM1680.58 623.818V627.818H1684.58V623.818H1680.58ZM1687.26 476.517L1683.52 477.949L1683.52 477.959L1687.26 476.517ZM1708.42 505.92L1705.99 509.097L1706 509.105L1706.01 509.113L1708.42 505.92ZM1777.6 505.352L1780.07 508.494L1780.08 508.491L1777.6 505.352ZM1798.9 475.239L1795.17 473.816L1795.16 473.823L1795.16 473.831L1798.9 475.239ZM1799.05 391.432L1795.3 392.833L1795.31 392.85L1795.31 392.868L1799.05 391.432ZM1777.88 362.028L1775.42 365.186L1775.44 365.2L1775.46 365.213L1777.88 362.028ZM1708.14 361.46L1710.5 364.684L1710.52 364.676L1710.53 364.668L1708.14 361.46ZM1687.11 390.153L1690.84 391.599L1690.85 391.589L1687.11 390.153ZM1651.06 623.818V323.818H1643.06V623.818H1651.06ZM1647.06 327.818H1679.44V319.818H1647.06V327.818ZM1675.44 323.818V358.477H1683.44V323.818H1675.44ZM1679.44 362.477H1683.42V354.477H1679.44V362.477ZM1686.77 360.657C1689.17 356.967 1692.53 352.212 1696.86 346.372L1690.44 341.605C1686.06 347.508 1682.59 352.411 1680.07 356.297L1686.77 360.657ZM1696.85 346.38C1700.89 340.965 1706.77 336.003 1714.64 331.565L1710.72 324.594C1702.12 329.437 1695.3 335.08 1690.44 341.597L1696.85 346.38ZM1714.66 331.557C1722.17 327.291 1732.67 324.977 1746.49 324.977V316.977C1731.9 316.977 1719.86 319.399 1710.71 324.602L1714.66 331.557ZM1746.49 324.977C1764.16 324.977 1779.57 329.383 1792.88 338.101L1797.26 331.41C1782.53 321.757 1765.56 316.977 1746.49 316.977V324.977ZM1792.88 338.101C1806.2 346.835 1816.67 359.25 1824.26 375.509L1831.51 372.128C1823.37 354.674 1811.97 341.047 1797.26 331.41L1792.88 338.101ZM1824.26 375.509C1831.82 391.727 1835.67 411.012 1835.67 433.477H1843.67C1843.67 410.109 1839.66 389.621 1831.51 372.128L1824.26 375.509ZM1835.67 433.477C1835.67 456.136 1831.82 475.566 1824.25 491.88L1831.51 495.245C1839.66 477.658 1843.67 457.03 1843.67 433.477H1835.67ZM1824.26 491.872C1816.67 508.14 1806.24 520.61 1792.99 529.439L1797.43 536.095C1812.03 526.364 1823.37 512.697 1831.51 495.253L1824.26 491.872ZM1793.01 529.428C1779.8 538.144 1764.53 542.545 1747.06 542.545V550.545C1765.95 550.545 1782.78 545.762 1797.41 536.106L1793.01 529.428ZM1747.06 542.545C1733.43 542.545 1722.95 540.281 1715.32 536.081L1711.46 543.089C1720.69 548.17 1732.65 550.545 1747.06 550.545V542.545ZM1715.35 536.098C1707.27 531.556 1701.25 526.536 1697.11 521.11L1690.75 525.958C1695.71 532.464 1702.66 538.144 1711.43 543.073L1715.35 536.098ZM1697.13 521.134C1692.62 515.118 1689.19 510.206 1686.82 506.372L1680.02 510.583C1682.57 514.703 1686.15 519.829 1690.73 525.934L1697.13 521.134ZM1683.42 504.477H1680.58V512.477H1683.42V504.477ZM1676.58 508.477V623.818H1684.58V508.477H1676.58ZM1680.58 619.818H1647.06V627.818H1680.58V619.818ZM1676.01 432.909C1676.01 449.771 1678.48 464.809 1683.52 477.949L1690.99 475.085C1686.37 463.036 1684.01 449.002 1684.01 432.909H1676.01ZM1683.52 477.959C1688.58 491.043 1696.04 501.485 1705.99 509.097L1710.85 502.744C1702.24 496.152 1695.59 486.991 1690.99 475.075L1683.52 477.959ZM1706.01 509.113C1716.09 516.724 1728.34 520.432 1742.51 520.432V512.432C1729.79 512.432 1719.31 509.132 1710.83 502.728L1706.01 509.113ZM1742.51 520.432C1757.26 520.432 1769.87 516.53 1780.07 508.494L1775.12 502.21C1766.57 508.948 1755.79 512.432 1742.51 512.432V520.432ZM1780.08 508.491C1790.18 500.508 1797.69 489.842 1802.65 476.646L1795.16 473.831C1790.65 485.825 1783.95 495.234 1775.12 502.214L1780.08 508.491ZM1802.64 476.661C1807.67 463.457 1810.15 448.856 1810.15 432.909H1802.15C1802.15 448.022 1799.8 461.641 1795.17 473.816L1802.64 476.661ZM1810.15 432.909C1810.15 417.156 1807.72 402.833 1802.78 389.996L1795.31 392.868C1799.84 404.652 1802.15 417.98 1802.15 432.909H1810.15ZM1802.79 390.03C1797.92 377 1790.44 366.549 1780.3 358.844L1775.46 365.213C1784.26 371.902 1790.89 381.053 1795.3 392.833L1802.79 390.03ZM1780.34 358.871C1770.13 350.932 1757.43 347.091 1742.51 347.091V355.091C1756.01 355.091 1766.88 358.541 1775.42 365.186L1780.34 358.871ZM1742.51 347.091C1728.17 347.091 1715.83 350.738 1705.75 358.252L1710.53 364.668C1719 358.357 1729.58 355.091 1742.51 355.091V347.091ZM1705.77 358.237C1695.79 365.571 1688.35 375.799 1683.38 388.717L1690.85 391.589C1695.35 379.886 1701.93 370.986 1710.5 364.684L1705.77 358.237ZM1683.38 388.708C1678.43 401.482 1676.01 416.243 1676.01 432.909H1684.01C1684.01 417 1686.32 403.257 1690.84 391.599L1683.38 388.708ZM2045.35 372.682L2046.44 376.531L2050.48 375.388L2049.14 371.41L2045.35 372.682ZM2015.24 381.205L2011.5 382.617L2012.79 386.054L2016.33 385.053L2015.24 381.205ZM2006.86 366.574L2003.65 368.964L2003.68 368.999L2003.7 369.034L2006.86 366.574ZM1992.09 354.642L1993.87 351.064L1992.09 354.642ZM1934.7 359.188L1936.97 362.483L1936.97 362.478L1934.7 359.188ZM1930.58 402.085L1928.09 405.213L1930.58 402.085ZM1958.99 414.159L1958.02 418.04L1958.03 418.042L1958.03 418.044L1958.99 414.159ZM1991.38 422.114L1990.42 425.998L1990.43 426.001L1991.38 422.114ZM2034.98 443.847L2032.13 446.647L2032.13 446.654L2032.14 446.661L2034.98 443.847ZM2038.53 514.727L2035.3 512.367L2035.3 512.377L2035.29 512.388L2038.53 514.727ZM1908.85 532.057L1911.06 528.722L1908.85 532.057ZM1881.15 489.727L1880.18 485.847L1876.44 486.78L1877.23 490.546L1881.15 489.727ZM1912.97 481.773L1916.84 480.773L1915.85 476.929L1912 477.892L1912.97 481.773ZM1930.15 508.193L1927.87 511.475L1927.88 511.481L1927.88 511.487L1930.15 508.193ZM2000.75 507.057L2003.09 510.3L2003.1 510.296L2000.75 507.057ZM2006.72 463.875L2003.91 466.729L2003.93 466.742L2003.94 466.754L2006.72 463.875ZM1982.28 452.227L1981.37 456.122L1981.38 456.123L1982.28 452.227ZM1945.92 443.705L1945 447.597L1945.01 447.599L1945.92 443.705ZM1901.89 421.688L1898.95 424.403L1898.96 424.417L1898.98 424.432L1901.89 421.688ZM1898.34 351.375L1895.12 348.996L1895.11 349.006L1895.1 349.017L1898.34 351.375ZM1926.89 329.074L1925.26 325.42L1925.25 325.425L1926.89 329.074ZM2018.93 335.182L2016.49 338.352L2016.5 338.357L2016.5 338.361L2018.93 335.182ZM2044.26 368.833L2014.15 377.356L2016.33 385.053L2046.44 376.531L2044.26 368.833ZM2018.98 379.792C2016.93 374.354 2013.92 369.129 2010.01 364.114L2003.7 369.034C2007.18 373.489 2009.76 378.017 2011.5 382.617L2018.98 379.792ZM2010.07 364.184C2006.04 358.778 2000.59 354.424 1993.87 351.064L1990.3 358.22C1996.08 361.11 2000.48 364.71 2003.65 368.964L2010.07 364.184ZM1993.87 351.064C1986.89 347.574 1978.22 345.955 1968.08 345.955V353.955C1977.44 353.955 1984.78 355.46 1990.3 358.22L1993.87 351.064ZM1968.08 345.955C1954.11 345.955 1942.14 349.182 1932.42 355.897L1936.97 362.478C1945.06 356.883 1955.35 353.955 1968.08 353.955V345.955ZM1932.43 355.892C1922.72 362.578 1917.49 371.449 1917.49 382.341H1925.49C1925.49 374.483 1929.07 367.918 1936.97 362.483L1932.43 355.892ZM1917.49 382.341C1917.49 391.787 1920.99 399.562 1928.09 405.213L1933.07 398.957C1928.04 394.95 1925.49 389.562 1925.49 382.341H1917.49ZM1928.09 405.213C1934.81 410.568 1944.93 414.766 1958.02 418.04L1959.96 410.279C1947.29 407.112 1938.47 403.261 1933.07 398.957L1928.09 405.213ZM1958.03 418.044L1990.42 425.998L1992.33 418.229L1959.94 410.275L1958.03 418.044ZM1990.43 426.001C2009.53 430.637 2023.28 437.622 2032.13 446.647L2037.84 441.046C2027.56 430.564 2012.23 423.06 1992.32 418.227L1990.43 426.001ZM2032.14 446.661C2040.87 455.477 2045.33 466.873 2045.33 481.205H2053.33C2053.33 465.044 2048.22 451.534 2037.83 441.032L2032.14 446.661ZM2045.33 481.205C2045.33 492.879 2041.99 503.222 2035.3 512.367L2041.76 517.087C2049.47 506.536 2053.33 494.53 2053.33 481.205H2045.33ZM2035.29 512.388C2028.66 521.579 2019.32 528.929 2007.08 534.367L2010.33 541.678C2023.66 535.753 2034.2 527.572 2041.78 517.067L2035.29 512.388ZM2007.08 534.367C1994.9 539.779 1980.61 542.545 1964.1 542.545V550.545C1981.5 550.545 1996.94 547.63 2010.33 541.678L2007.08 534.367ZM1964.1 542.545C1942.42 542.545 1924.83 537.843 1911.06 528.722L1906.64 535.392C1922.03 545.589 1941.28 550.545 1964.1 550.545V542.545ZM1911.06 528.722C1897.43 519.696 1888.75 506.534 1885.06 488.908L1877.23 490.546C1881.31 510.042 1891.1 525.1 1906.64 535.392L1911.06 528.722ZM1882.12 493.608L1913.94 485.653L1912 477.892L1880.18 485.847L1882.12 493.608ZM1909.09 482.772C1912.32 495.265 1918.52 504.962 1927.87 511.475L1932.44 504.911C1924.93 499.682 1919.68 491.766 1916.84 480.773L1909.09 482.772ZM1927.88 511.487C1937.26 517.947 1949.25 521 1963.53 521V513C1950.35 513 1940.09 510.182 1932.42 504.899L1927.88 511.487ZM1963.53 521C1979.69 521 1993.01 517.576 2003.09 510.3L1998.41 503.813C1990.12 509.795 1978.63 513 1963.53 513V521ZM2003.1 510.296C2013.16 503.008 2018.67 493.857 2018.67 482.909H2010.67C2010.67 490.712 2006.9 497.658 1998.4 503.818L2003.1 510.296ZM2018.67 482.909C2018.67 474.282 2015.6 466.887 2009.49 460.996L2003.94 466.754C2008.44 471.09 2010.67 476.385 2010.67 482.909H2018.67ZM2009.52 461.021C2003.49 455.097 1994.55 450.975 1983.19 448.331L1981.38 456.123C1991.99 458.593 1999.34 462.236 2003.91 466.729L2009.52 461.021ZM1983.2 448.333L1946.83 439.81L1945.01 447.599L1981.37 456.122L1983.2 448.333ZM1946.84 439.812C1927.26 435.173 1913.43 428.099 1904.8 418.943L1898.98 424.432C1909.09 435.162 1924.61 442.767 1945 447.597L1946.84 439.812ZM1904.82 418.972C1896.3 409.751 1891.97 398.206 1891.97 384.045H1883.97C1883.97 399.998 1888.91 413.548 1898.95 424.403L1904.82 418.972ZM1891.97 384.045C1891.97 372.537 1895.18 362.483 1901.57 353.733L1895.1 349.017C1887.67 359.207 1883.97 370.932 1883.97 384.045H1891.97ZM1901.55 353.754C1908.1 344.9 1917.05 337.874 1928.52 332.723L1925.25 325.425C1912.67 331.069 1902.58 338.911 1895.12 348.996L1901.55 353.754ZM1928.51 332.728C1940.05 327.591 1953.21 324.977 1968.08 324.977V316.977C1952.27 316.977 1937.97 319.761 1925.26 325.42L1928.51 332.728ZM1968.08 324.977C1989.13 324.977 2005.11 329.595 2016.49 338.352L2021.37 332.011C2008.13 321.829 1990.21 316.977 1968.08 316.977V324.977ZM2016.5 338.361C2028.24 347.321 2036.59 359.142 2041.56 373.954L2049.14 371.41C2043.7 355.161 2034.43 341.982 2021.36 332.002L2016.5 338.361Z" fill="black" mask="url(#path-8-outside-1_2_14)"/>
</g>
<defs>
<filter id="filter0_ii_2_14" x="0.485291" y="-19.7099" width="783.947" height="824.71" filterUnits="userSpaceOnUse" color-interpolation-filters="sRGB">
<feFlood flood-opacity="0" result="BackgroundImageFix"/>
<feBlend mode="normal" in="SourceGraphic" in2="BackgroundImageFix" result="shape"/>
<feColorMatrix in="SourceAlpha" type="matrix" values="0 0 0 0 0 0 0 0 0 0 0 0 0 0 0 0 0 0 127 0" result="hardAlpha"/>
<feOffset dy="30"/>
<feGaussianBlur stdDeviation="10"/>
<feComposite in2="hardAlpha" operator="arithmetic" k2="-1" k3="1"/>
<feColorMatrix type="matrix" values="0 0 0 0 0 0 0 0 0 0 0 0 0 0 0 0 0 0 0.25 0"/>
<feBlend mode="normal" in2="shape" result="effect1_innerShadow_2_14"/>
<feColorMatrix in="SourceAlpha" type="matrix" values="0 0 0 0 0 0 0 0 0 0 0 0 0 0 0 0 0 0 127 0" result="hardAlpha"/>
<feOffset dy="-30"/>
<feGaussianBlur stdDeviation="10"/>
<feComposite in2="hardAlpha" operator="arithmetic" k2="-1" k3="1"/>
<feColorMatrix type="matrix" values="0 0 0 0 0 0 0 0 0 0 0 0 0 0 0 0 0 0 0.25 0"/>
<feBlend mode="normal" in2="effect1_innerShadow_2_14" result="effect2_innerShadow_2_14"/>
</filter>
<filter id="filter1_d_2_14" x="820.618" y="211.5" width="1263.21" height="450.818" filterUnits="userSpaceOnUse" color-interpolation-filters="sRGB">
<feFlood flood-opacity="0" result="BackgroundImageFix"/>
<feColorMatrix in="SourceAlpha" type="matrix" values="0 0 0 0 0 0 0 0 0 0 0 0 0 0 0 0 0 0 127 0" result="hardAlpha"/>
<feOffset dy="4"/>
<feGaussianBlur stdDeviation="17.25"/>
<feComposite in2="hardAlpha" operator="out"/>
<feColorMatrix type="matrix" values="0 0 0 0 0 0 0 0 0 0 0 0 0 0 0 0 0 0 1 0"/>
<feBlend mode="normal" in2="BackgroundImageFix" result="effect1_dropShadow_2_14"/>
<feBlend mode="normal" in="SourceGraphic" in2="effect1_dropShadow_2_14" result="shape"/>
</filter>
<radialGradient id="paint0_radial_2_14" cx="0" cy="0" r="1" gradientUnits="userSpaceOnUse" gradientTransform="translate(391 396) rotate(90) scale(389)">
<stop offset="0.13289" stop-color="#33CEFF"/>
<stop offset="0.93" stop-color="#00659E"/>
</radialGradient>
<radialGradient id="paint1_radial_2_14" cx="0" cy="0" r="1" gradientUnits="userSpaceOnUse" gradientTransform="translate(391.5 446.593) rotate(90) scale(265 500.373)">
<stop stop-color="#FF82C6" stop-opacity="0.74"/>
<stop offset="0.24" stop-color="#E401B2"/>
<stop offset="0.495" stop-color="#AF048A" stop-opacity="0.99"/>
</radialGradient>
<radialGradient id="paint2_radial_2_14" cx="0" cy="0" r="1" gradientUnits="userSpaceOnUse" gradientTransform="translate(392 696) rotate(-90) scale(168 350.488)">
<stop stop-color="white"/>
<stop offset="1" stop-color="#0085FF" stop-opacity="0"/>
</radialGradient>
<radialGradient id="paint3_radial_2_14" cx="0" cy="0" r="1" gradientUnits="userSpaceOnUse" gradientTransform="translate(390 28) rotate(90) scale(214 446.454)">
<stop stop-color="#0085FF" stop-opacity="0.22"/>
<stop offset="1" stop-color="white" stop-opacity="0.6"/>
</radialGradient>
<radialGradient id="paint4_radial_2_14" cx="0" cy="0" r="1" gradientUnits="userSpaceOnUse" gradientTransform="translate(392.5 74.1076) rotate(90) scale(373 464.617)">
<stop offset="0.476031" stop-color="#FFEEFA"/>
<stop offset="0.704549" stop-color="#FF00C7"/>
<stop offset="0.963827" stop-color="#AE0088"/>
</radialGradient>
<linearGradient id="paint5_linear_2_14" x1="1444.5" y1="128" x2="1444.5" y2="665" gradientUnits="userSpaceOnUse">
<stop stop-color="#012C53"/>
<stop offset="0.485" stop-color="#3FBAFF"/>
<stop offset="1" stop-color="#031E38"/>
</linearGradient>
</defs>
</svg>
