<svg width="785" height="785" viewBox="0 0 785 785" fill="none" xmlns="http://www.w3.org/2000/svg">
<g filter="url(#filter0_ii_2_3)">
<path d="M780 396C780 785 780 785 391 785C2 785 2 785 2 396C2 7.00003 2 7 391 7C780 7 780 7.00003 780 396Z" fill="url(#paint0_radial_2_3)"/>
<path d="M681.5 361.544C639.5 403.48 535.93 550.044 389.956 550.044C243.983 550.044 128.569 399.342 96.5 361.544C157 377.544 310 404.044 389.956 404.044C469.912 404.044 614.5 380.044 681.5 361.544Z" fill="url(#paint1_radial_2_3)"/>
<path d="M389.956 408.044C465.287 408.044 597.288 386.91 668.953 368.97C664.642 373.69 659.9 379.034 654.76 384.827C648.934 391.393 642.597 398.535 635.799 405.995C617.955 425.574 596.639 447.686 572.131 468.469C523.057 510.085 461.572 546.044 389.956 546.044C318.334 546.044 253.882 509.045 203.068 466.89C159.365 430.633 126.155 390.915 107.465 368.429C174.451 384.58 314.399 408.044 389.956 408.044Z" stroke="#54003D" stroke-opacity="0.85" stroke-width="8"/>
<path d="M15 454.689C15 326.559 175.161 514.689 390 514.689C604.839 514.689 769 316.87 769 445C769 573.13 901.5 762 390 776.689C-112.793 791.128 15 582.819 15 454.689Z" fill="url(#paint2_radial_2_3)" fill-opacity="0.44"/>
<path d="M759 269C759 397.13 605.839 299.5 391 299.5C176.161 299.5 18 397.13 18 269C18 140.87 -22.5 -9.99999 391 7.00002C759 -36.5 759 140.87 759 269Z" fill="url(#paint3_radial_2_3)" fill-opacity="0.44"/>
<path d="M629.851 338.914C647.167 349.141 664.124 357.896 680.108 362.672C670.204 364.458 659.28 366.469 647.617 368.615C644.119 369.259 640.555 369.915 636.933 370.581C610.758 375.391 581.471 380.722 551.837 385.693C492.471 395.652 432.034 404.108 392.5 404.108C355.643 404.108 303.684 397.286 247.542 388.151C214.068 382.705 179.282 376.468 145.44 370.4C131.077 367.825 116.884 365.28 103.032 362.839C120.031 358.15 137.826 349.442 155.848 339.207C168.905 331.791 182.251 323.469 195.647 315.116C196.233 314.751 196.818 314.385 197.404 314.02C211.418 305.283 225.487 296.546 239.49 288.697C267.593 272.943 294.907 261.078 320.246 259.863C345.193 258.667 368.599 267.776 389.316 295.018L392.482 299.182L395.671 295.036C416.99 267.314 440.959 257.972 466.292 259.088C492 260.22 519.516 272.14 547.515 287.998C561.466 295.9 575.415 304.705 589.215 313.513C590.836 314.547 592.455 315.582 594.072 316.615C606.192 324.36 618.188 332.026 629.851 338.914Z" fill="url(#paint4_radial_2_3)" stroke="#920069" stroke-width="8"/>
</g>
<defs>
<filter id="filter0_ii_2_3" x="0.485291" y="-19.7099" width="783.947" height="824.71" filterUnits="userSpaceOnUse" color-interpolation-filters="sRGB">
<feFlood flood-opacity="0" result="BackgroundImageFix"/>
<feBlend mode="normal" in="SourceGraphic" in2="BackgroundImageFix" result="shape"/>
<feColorMatrix in="SourceAlpha" type="matrix" values="0 0 0 0 0 0 0 0 0 0 0 0 0 0 0 0 0 0 127 0" result="hardAlpha"/>
<feOffset dy="30"/>
<feGaussianBlur stdDeviation="10"/>
<feComposite in2="hardAlpha" operator="arithmetic" k2="-1" k3="1"/>
<feColorMatrix type="matrix" values="0 0 0 0 0 0 0 0 0 0 0 0 0 0 0 0 0 0 0.25 0"/>
<feBlend mode="normal" in2="shape" result="effect1_innerShadow_2_3"/>
<feColorMatrix in="SourceAlpha" type="matrix" values="0 0 0 0 0 0 0 0 0 0 0 0 0 0 0 0 0 0 127 0" result="hardAlpha"/>
<feOffset dy="-30"/>
<feGaussianBlur stdDeviation="10"/>
<feComposite in2="hardAlpha" operator="arithmetic" k2="-1" k3="1"/>
<feColorMatrix type="matrix" values="0 0 0 0 0 0 0 0 0 0 0 0 0 0 0 0 0 0 0.25 0"/>
<feBlend mode="normal" in2="effect1_innerShadow_2_3" result="effect2_innerShadow_2_3"/>
</filter>
<radialGradient id="paint0_radial_2_3" cx="0" cy="0" r="1" gradientUnits="userSpaceOnUse" gradientTransform="translate(391 396) rotate(90) scale(389)">
<stop offset="0.13289" stop-color="#33CEFF"/>
<stop offset="0.93" stop-color="#00659E"/>
</radialGradient>
<radialGradient id="paint1_radial_2_3" cx="0" cy="0" r="1" gradientUnits="userSpaceOnUse" gradientTransform="translate(391.5 446.593) rotate(90) scale(265 500.373)">
<stop stop-color="#FF82C6" stop-opacity="0.74"/>
<stop offset="0.24" stop-color="#E401B2"/>
<stop offset="0.495" stop-color="#AF048A" stop-opacity="0.99"/>
</radialGradient>
<radialGradient id="paint2_radial_2_3" cx="0" cy="0" r="1" gradientUnits="userSpaceOnUse" gradientTransform="translate(392 696) rotate(-90) scale(168 350.488)">
<stop stop-color="white"/>
<stop offset="1" stop-color="#0085FF" stop-opacity="0"/>
</radialGradient>
<radialGradient id="paint3_radial_2_3" cx="0" cy="0" r="1" gradientUnits="userSpaceOnUse" gradientTransform="translate(390 28) rotate(90) scale(214 446.454)">
<stop stop-color="#0085FF" stop-opacity="0.22"/>
<stop offset="1" stop-color="white" stop-opacity="0.6"/>
</radialGradient>
<radialGradient id="paint4_radial_2_3" cx="0" cy="0" r="1" gradientUnits="userSpaceOnUse" gradientTransform="translate(392.5 74.1076) rotate(90) scale(373 464.617)">
<stop offset="0.476031" stop-color="#FFEEFA"/>
<stop offset="0.704549" stop-color="#FF00C7"/>
<stop offset="0.963827" stop-color="#AE0088"/>
</radialGradient>
</defs>
</svg>
