<svg width="2107" height="778" viewBox="0 0 2107 778" fill="none" xmlns="http://www.w3.org/2000/svg">
<g filter="url(#filter0_ii_2_14)">
<g clip-path="url(#clip0_2_14)">
<circle cx="389" cy="389" r="389" fill="url(#paint0_radial_2_14)"/>
<path d="M757 262C757 390.13 603.839 262 389 262C174.161 262 16 390.13 16 262C16 133.87 174.161 0 389 0C603.839 0 757 133.87 757 262Z" fill="url(#paint1_radial_2_14)" fill-opacity="0.44"/>
<path d="M13 447.689C13 319.559 173.161 507.689 388 507.689C602.839 507.689 767 309.87 767 438C767 566.13 602.839 769.689 388 769.689C173.161 769.689 13 575.819 13 447.689Z" fill="url(#paint2_radial_2_14)" fill-opacity="0.44"/>
<path d="M676 371C645.076 408.798 534.43 575 388.456 575C242.483 575 136.069 408.798 104 371C255.052 371 242.483 435.986 388.456 435.986C534.43 435.986 522.879 371 676 371Z" fill="url(#paint3_linear_2_14)"/>
<path d="M531.252 407.112C564.165 391.612 597.634 376.198 667.667 375.066C665.543 377.798 663.194 380.861 660.627 384.207C641.983 408.514 611.852 447.797 572.648 484.245C523.135 530.278 459.928 571 388.456 571C317.001 571 254.857 530.294 206.264 484.27C170.033 449.955 141.875 413.265 123.067 388.76C119.118 383.615 115.582 379.007 112.47 375.071C181.339 376.235 214.026 391.622 246.407 407.102C246.724 407.253 247.04 407.404 247.356 407.555C264.019 415.522 280.914 423.6 302.588 429.683C324.698 435.888 351.652 439.986 388.456 439.986C461.463 439.986 495.741 423.839 530.094 407.657L531.252 407.112Z" stroke="#75245F" stroke-opacity="0.85" stroke-width="8"/>
<path d="M694.434 359.037C600.394 359.273 544.11 362.647 501.873 366.025C491.918 366.821 482.763 367.615 474.093 368.367C444.579 370.928 420.689 373 390 373C362.011 373 338.999 371.016 310.178 368.532C300.891 367.732 291 366.879 280.145 366.024C237.235 362.645 179.631 359.269 85.4036 359.036C85.6899 358.778 85.9774 358.519 86.2663 358.258C120.441 327.417 172.88 280.092 227.232 250.931C256.794 235.071 286.511 224.817 313.87 225.263C340.982 225.704 366.082 236.646 386.816 263.911L389.982 268.074L393.171 263.928C414.499 236.195 440.044 225.253 467.444 225.004C495.094 224.753 524.961 235.399 554.526 251.604C605.021 279.28 653.381 322.422 686.634 352.088C689.336 354.498 691.939 356.82 694.434 359.037Z" fill="url(#paint4_linear_2_14)" stroke="#A04988" stroke-width="8"/>
</g>
</g>
<g filter="url(#filter1_d_2_14)">
<mask id="path-8-outside-1_2_14" maskUnits="userSpaceOnUse" x="849" y="231" width="1203" height="390" fill="black">
<rect fill="white" x="849" y="231" width="1203" height="390"/>
<path d="M853.118 535V244.091H951.413C974.235 244.091 992.891 248.21 1007.38 256.449C1021.96 264.593 1032.76 275.625 1039.77 289.545C1046.77 303.466 1050.28 318.996 1050.28 336.136C1050.28 353.277 1046.77 368.854 1039.77 382.869C1032.85 396.884 1022.15 408.059 1007.66 416.392C993.175 424.631 974.614 428.75 951.982 428.75H881.527V397.5H950.845C966.47 397.5 979.018 394.801 988.487 389.403C997.957 384.006 1004.82 376.714 1009.08 367.528C1013.44 358.248 1015.62 347.784 1015.62 336.136C1015.62 324.489 1013.44 314.072 1009.08 304.886C1004.82 295.701 997.91 288.504 988.345 283.295C978.781 277.992 966.091 275.341 950.277 275.341H888.345V535H853.118ZM1124.07 616.818C1118.39 616.818 1113.32 616.345 1108.87 615.398C1104.42 614.545 1101.34 613.693 1099.64 612.841L1108.16 583.295C1116.3 585.379 1123.5 586.136 1129.75 585.568C1136 585 1141.54 582.206 1146.37 577.188C1151.29 572.263 1155.79 564.261 1159.87 553.182L1166.12 536.136L1085.43 316.818H1121.8L1182.02 490.682H1184.3L1244.52 316.818H1280.89L1188.27 566.818C1184.11 578.087 1178.95 587.415 1172.79 594.801C1166.64 602.282 1159.49 607.822 1151.34 611.42C1143.29 615.019 1134.2 616.818 1124.07 616.818ZM1329.68 535V244.091H1364.91V503.75H1500.13V535H1329.68ZM1550.13 535V316.818H1583.66V535H1550.13ZM1567.18 280.455C1560.65 280.455 1555.01 278.229 1550.28 273.778C1545.64 269.328 1543.32 263.977 1543.32 257.727C1543.32 251.477 1545.64 246.127 1550.28 241.676C1555.01 237.225 1560.65 235 1567.18 235C1573.71 235 1579.3 237.225 1583.94 241.676C1588.68 246.127 1591.04 251.477 1591.04 257.727C1591.04 263.977 1588.68 269.328 1583.94 273.778C1579.3 278.229 1573.71 280.455 1567.18 280.455ZM1645.06 616.818V316.818H1677.44V351.477H1681.42C1683.88 347.689 1687.29 342.86 1691.65 336.989C1696.1 331.023 1702.44 325.72 1710.68 321.08C1719.02 316.345 1730.28 313.977 1744.49 313.977C1762.86 313.977 1779.05 318.57 1793.07 327.756C1807.08 336.941 1818.02 349.962 1825.88 366.818C1833.74 383.674 1837.67 403.561 1837.67 426.477C1837.67 449.583 1833.74 469.612 1825.88 486.562C1818.02 503.419 1807.13 516.487 1793.21 525.767C1779.29 534.953 1763.24 539.545 1745.06 539.545C1731.04 539.545 1719.82 537.225 1711.39 532.585C1702.96 527.85 1696.48 522.5 1691.93 516.534C1687.39 510.473 1683.88 505.455 1681.42 501.477H1678.58V616.818H1645.06ZM1678.01 425.909C1678.01 442.386 1680.43 456.922 1685.26 469.517C1690.09 482.017 1697.14 491.818 1706.42 498.92C1715.7 505.928 1727.06 509.432 1740.51 509.432C1754.53 509.432 1766.22 505.739 1775.6 498.352C1785.07 490.871 1792.17 480.833 1796.9 468.239C1801.73 455.549 1804.15 441.439 1804.15 425.909C1804.15 410.568 1801.78 396.742 1797.05 384.432C1792.41 372.027 1785.35 362.225 1775.88 355.028C1766.51 347.737 1754.72 344.091 1740.51 344.091C1726.88 344.091 1715.42 347.547 1706.14 354.46C1696.86 361.278 1689.85 370.843 1685.11 383.153C1680.38 395.369 1678.01 409.621 1678.01 425.909ZM2043.35 365.682L2013.24 374.205C2011.34 369.186 2008.55 364.309 2004.86 359.574C2001.26 354.744 1996.34 350.767 1990.09 347.642C1983.84 344.517 1975.83 342.955 1966.08 342.955C1952.73 342.955 1941.6 346.032 1932.7 352.188C1923.89 358.248 1919.49 365.966 1919.49 375.341C1919.49 383.674 1922.52 390.256 1928.58 395.085C1934.64 399.915 1944.11 403.939 1956.99 407.159L1989.38 415.114C2008.88 419.848 2023.42 427.093 2032.98 436.847C2042.55 446.506 2047.33 458.958 2047.33 474.205C2047.33 486.705 2043.73 497.879 2036.53 507.727C2029.43 517.576 2019.49 525.341 2006.7 531.023C1993.92 536.705 1979.05 539.545 1962.1 539.545C1939.85 539.545 1921.43 534.716 1906.85 525.057C1892.26 515.398 1883.03 501.288 1879.15 482.727L1910.97 474.773C1914 486.515 1919.73 495.322 1928.15 501.193C1936.68 507.064 1947.8 510 1961.53 510C1977.16 510 1989.56 506.686 1998.75 500.057C2008.03 493.333 2012.67 485.284 2012.67 475.909C2012.67 468.333 2010.02 461.989 2004.72 456.875C1999.41 451.667 1991.27 447.784 1980.28 445.227L1943.92 436.705C1923.94 431.97 1909.26 424.631 1899.89 414.688C1890.61 404.65 1885.97 392.102 1885.97 377.045C1885.97 364.735 1889.42 353.845 1896.34 344.375C1903.34 334.905 1912.86 327.472 1924.89 322.074C1937.01 316.676 1950.74 313.977 1966.08 313.977C1987.67 313.977 2004.62 318.712 2016.93 328.182C2029.34 337.652 2038.14 350.152 2043.35 365.682Z"/>
</mask>
<path d="M853.118 535V244.091H951.413C974.235 244.091 992.891 248.21 1007.38 256.449C1021.96 264.593 1032.76 275.625 1039.77 289.545C1046.77 303.466 1050.28 318.996 1050.28 336.136C1050.28 353.277 1046.77 368.854 1039.77 382.869C1032.85 396.884 1022.15 408.059 1007.66 416.392C993.175 424.631 974.614 428.75 951.982 428.75H881.527V397.5H950.845C966.47 397.5 979.018 394.801 988.487 389.403C997.957 384.006 1004.82 376.714 1009.08 367.528C1013.44 358.248 1015.62 347.784 1015.62 336.136C1015.62 324.489 1013.44 314.072 1009.08 304.886C1004.82 295.701 997.91 288.504 988.345 283.295C978.781 277.992 966.091 275.341 950.277 275.341H888.345V535H853.118ZM1124.07 616.818C1118.39 616.818 1113.32 616.345 1108.87 615.398C1104.42 614.545 1101.34 613.693 1099.64 612.841L1108.16 583.295C1116.3 585.379 1123.5 586.136 1129.75 585.568C1136 585 1141.54 582.206 1146.37 577.188C1151.29 572.263 1155.79 564.261 1159.87 553.182L1166.12 536.136L1085.43 316.818H1121.8L1182.02 490.682H1184.3L1244.52 316.818H1280.89L1188.27 566.818C1184.11 578.087 1178.95 587.415 1172.79 594.801C1166.64 602.282 1159.49 607.822 1151.34 611.42C1143.29 615.019 1134.2 616.818 1124.07 616.818ZM1329.68 535V244.091H1364.91V503.75H1500.13V535H1329.68ZM1550.13 535V316.818H1583.66V535H1550.13ZM1567.18 280.455C1560.65 280.455 1555.01 278.229 1550.28 273.778C1545.64 269.328 1543.32 263.977 1543.32 257.727C1543.32 251.477 1545.64 246.127 1550.28 241.676C1555.01 237.225 1560.65 235 1567.18 235C1573.71 235 1579.3 237.225 1583.94 241.676C1588.68 246.127 1591.04 251.477 1591.04 257.727C1591.04 263.977 1588.68 269.328 1583.94 273.778C1579.3 278.229 1573.71 280.455 1567.18 280.455ZM1645.06 616.818V316.818H1677.44V351.477H1681.42C1683.88 347.689 1687.29 342.86 1691.65 336.989C1696.1 331.023 1702.44 325.72 1710.68 321.08C1719.02 316.345 1730.28 313.977 1744.49 313.977C1762.86 313.977 1779.05 318.57 1793.07 327.756C1807.08 336.941 1818.02 349.962 1825.88 366.818C1833.74 383.674 1837.67 403.561 1837.67 426.477C1837.67 449.583 1833.74 469.612 1825.88 486.562C1818.02 503.419 1807.13 516.487 1793.21 525.767C1779.29 534.953 1763.24 539.545 1745.06 539.545C1731.04 539.545 1719.82 537.225 1711.39 532.585C1702.96 527.85 1696.48 522.5 1691.93 516.534C1687.39 510.473 1683.88 505.455 1681.42 501.477H1678.58V616.818H1645.06ZM1678.01 425.909C1678.01 442.386 1680.43 456.922 1685.26 469.517C1690.09 482.017 1697.14 491.818 1706.42 498.92C1715.7 505.928 1727.06 509.432 1740.51 509.432C1754.53 509.432 1766.22 505.739 1775.6 498.352C1785.07 490.871 1792.17 480.833 1796.9 468.239C1801.73 455.549 1804.15 441.439 1804.15 425.909C1804.15 410.568 1801.78 396.742 1797.05 384.432C1792.41 372.027 1785.35 362.225 1775.88 355.028C1766.51 347.737 1754.72 344.091 1740.51 344.091C1726.88 344.091 1715.42 347.547 1706.14 354.46C1696.86 361.278 1689.85 370.843 1685.11 383.153C1680.38 395.369 1678.01 409.621 1678.01 425.909ZM2043.35 365.682L2013.24 374.205C2011.34 369.186 2008.55 364.309 2004.86 359.574C2001.26 354.744 1996.34 350.767 1990.09 347.642C1983.84 344.517 1975.83 342.955 1966.08 342.955C1952.73 342.955 1941.6 346.032 1932.7 352.188C1923.89 358.248 1919.49 365.966 1919.49 375.341C1919.49 383.674 1922.52 390.256 1928.58 395.085C1934.64 399.915 1944.11 403.939 1956.99 407.159L1989.38 415.114C2008.88 419.848 2023.42 427.093 2032.98 436.847C2042.55 446.506 2047.33 458.958 2047.33 474.205C2047.33 486.705 2043.73 497.879 2036.53 507.727C2029.43 517.576 2019.49 525.341 2006.7 531.023C1993.92 536.705 1979.05 539.545 1962.1 539.545C1939.85 539.545 1921.43 534.716 1906.85 525.057C1892.26 515.398 1883.03 501.288 1879.15 482.727L1910.97 474.773C1914 486.515 1919.73 495.322 1928.15 501.193C1936.68 507.064 1947.8 510 1961.53 510C1977.16 510 1989.56 506.686 1998.75 500.057C2008.03 493.333 2012.67 485.284 2012.67 475.909C2012.67 468.333 2010.02 461.989 2004.72 456.875C1999.41 451.667 1991.27 447.784 1980.28 445.227L1943.92 436.705C1923.94 431.97 1909.26 424.631 1899.89 414.688C1890.61 404.65 1885.97 392.102 1885.97 377.045C1885.97 364.735 1889.42 353.845 1896.34 344.375C1903.34 334.905 1912.86 327.472 1924.89 322.074C1937.01 316.676 1950.74 313.977 1966.08 313.977C1987.67 313.977 2004.62 318.712 2016.93 328.182C2029.34 337.652 2038.14 350.152 2043.35 365.682Z" fill="url(#paint5_linear_2_14)"/>
<path d="M853.118 535H849.118V539H853.118V535ZM853.118 244.091V240.091H849.118V244.091H853.118ZM1007.38 256.449L1005.4 259.926L1005.42 259.934L1005.43 259.941L1007.38 256.449ZM1039.77 289.545L1036.19 291.344L1036.19 291.344L1039.77 289.545ZM1039.77 382.869L1036.19 381.08L1036.18 381.09L1036.18 381.1L1039.77 382.869ZM1007.66 416.392L1009.64 419.869L1009.65 419.864L1009.66 419.859L1007.66 416.392ZM881.527 428.75H877.527V432.75H881.527V428.75ZM881.527 397.5V393.5H877.527V397.5H881.527ZM988.487 389.403L986.506 385.928L986.506 385.928L988.487 389.403ZM1009.08 367.528L1005.46 365.829L1005.46 365.837L1005.46 365.845L1009.08 367.528ZM1009.08 304.886L1005.46 306.57L1005.46 306.585L1005.47 306.6L1009.08 304.886ZM988.345 283.295L986.406 286.794L986.419 286.801L986.432 286.808L988.345 283.295ZM888.345 275.341V271.341H884.345V275.341H888.345ZM888.345 535V539H892.345V535H888.345ZM857.118 535V244.091H849.118V535H857.118ZM853.118 248.091H951.413V240.091H853.118V248.091ZM951.413 248.091C973.787 248.091 991.698 252.134 1005.4 259.926L1009.36 252.972C994.083 244.287 974.684 240.091 951.413 240.091V248.091ZM1005.43 259.941C1019.37 267.725 1029.57 278.19 1036.19 291.344L1043.34 287.747C1035.95 273.06 1024.56 261.461 1009.33 252.957L1005.43 259.941ZM1036.19 291.344C1042.89 304.653 1046.28 319.558 1046.28 336.136H1054.28C1054.28 318.435 1050.65 302.279 1043.34 287.747L1036.19 291.344ZM1046.28 336.136C1046.28 352.715 1042.89 367.671 1036.19 381.08L1043.34 384.658C1050.65 370.037 1054.28 353.838 1054.28 336.136H1046.28ZM1036.18 381.1C1029.64 394.353 1019.52 404.958 1005.67 412.925L1009.66 419.859C1024.78 411.159 1036.06 399.416 1043.35 384.639L1036.18 381.1ZM1005.69 412.915C991.978 420.71 974.159 424.75 951.982 424.75V432.75C975.069 432.75 994.372 428.552 1009.64 419.869L1005.69 412.915ZM951.982 424.75H881.527V432.75H951.982V424.75ZM885.527 428.75V397.5H877.527V428.75H885.527ZM881.527 401.5H950.845V393.5H881.527V401.5ZM950.845 401.5C966.882 401.5 980.189 398.738 990.468 392.879L986.506 385.928C977.846 390.865 966.059 393.5 950.845 393.5V401.5ZM990.468 392.879C1000.6 387.102 1008.07 379.21 1012.71 369.212L1005.46 365.845C1001.57 374.218 995.312 380.909 986.506 385.928L990.468 392.879ZM1012.7 369.228C1017.34 359.348 1019.62 348.291 1019.62 336.136H1011.62C1011.62 347.277 1009.54 357.148 1005.46 365.829L1012.7 369.228ZM1019.62 336.136C1019.62 323.982 1017.34 312.967 1012.7 303.172L1005.47 306.6C1009.54 315.177 1011.62 324.995 1011.62 336.136H1019.62ZM1012.71 303.203C1008.06 293.179 1000.52 285.368 990.258 279.783L986.432 286.808C995.304 291.639 1001.58 298.222 1005.46 306.57L1012.71 303.203ZM990.285 279.797C979.921 274.051 966.487 271.341 950.277 271.341V279.341C965.696 279.341 977.641 281.934 986.406 286.794L990.285 279.797ZM950.277 271.341H888.345V279.341H950.277V271.341ZM884.345 275.341V535H892.345V275.341H884.345ZM888.345 531H853.118V539H888.345V531ZM1108.87 615.398L1109.7 611.485L1109.66 611.477L1109.62 611.469L1108.87 615.398ZM1099.64 612.841L1095.79 611.732L1094.87 614.93L1097.85 616.419L1099.64 612.841ZM1108.16 583.295L1109.15 579.42L1105.39 578.459L1104.32 582.187L1108.16 583.295ZM1129.75 585.568L1129.39 581.585L1129.39 581.585L1129.75 585.568ZM1146.37 577.188L1143.54 574.359L1143.52 574.386L1143.49 574.414L1146.37 577.188ZM1159.87 553.182L1163.62 554.562L1163.62 554.559L1159.87 553.182ZM1166.12 536.136L1169.87 537.513L1170.38 536.134L1169.87 534.755L1166.12 536.136ZM1085.43 316.818V312.818H1079.7L1081.68 318.199L1085.43 316.818ZM1121.8 316.818L1125.58 315.509L1124.64 312.818H1121.8V316.818ZM1182.02 490.682L1178.24 491.991L1179.18 494.682H1182.02V490.682ZM1184.3 490.682V494.682H1187.14L1188.08 491.991L1184.3 490.682ZM1244.52 316.818V312.818H1241.68L1240.74 315.509L1244.52 316.818ZM1280.89 316.818L1284.64 318.208L1286.64 312.818H1280.89V316.818ZM1188.27 566.818L1184.52 565.429L1184.52 565.431L1188.27 566.818ZM1172.79 594.801L1169.72 592.24L1169.71 592.25L1169.7 592.26L1172.79 594.801ZM1151.34 611.42L1149.73 607.762L1149.72 607.765L1149.71 607.769L1151.34 611.42ZM1124.07 612.818C1118.6 612.818 1113.82 612.362 1109.7 611.485L1108.04 619.31C1112.82 620.328 1118.17 620.818 1124.07 620.818V612.818ZM1109.62 611.469C1105.17 610.617 1102.59 609.844 1101.43 609.263L1097.85 616.419C1100.1 617.543 1103.67 618.474 1108.12 619.326L1109.62 611.469ZM1103.48 613.95L1112 584.404L1104.32 582.187L1095.79 611.732L1103.48 613.95ZM1107.17 587.171C1115.61 589.331 1123.28 590.173 1130.11 589.552L1129.39 581.585C1123.72 582.1 1116.99 581.427 1109.15 579.42L1107.17 587.171ZM1130.11 589.552C1137.43 588.887 1143.83 585.592 1149.25 579.961L1143.49 574.414C1139.25 578.821 1134.57 581.113 1129.39 581.585L1130.11 589.552ZM1149.2 580.016C1154.72 574.491 1159.47 565.858 1163.62 554.562L1156.11 551.802C1152.12 562.665 1147.87 570.035 1143.54 574.359L1149.2 580.016ZM1163.62 554.559L1169.87 537.513L1162.36 534.759L1156.11 551.805L1163.62 554.559ZM1169.87 534.755L1089.19 315.437L1081.68 318.199L1162.36 537.517L1169.87 534.755ZM1085.43 320.818H1121.8V312.818H1085.43V320.818ZM1118.02 318.127L1178.24 491.991L1185.8 489.373L1125.58 315.509L1118.02 318.127ZM1182.02 494.682H1184.3V486.682H1182.02V494.682ZM1188.08 491.991L1248.3 318.127L1240.74 315.509L1180.52 489.373L1188.08 491.991ZM1244.52 320.818H1280.89V312.818H1244.52V320.818ZM1277.14 315.429L1184.52 565.429L1192.03 568.208L1284.64 318.208L1277.14 315.429ZM1184.52 565.431C1180.48 576.375 1175.52 585.279 1169.72 592.24L1175.86 597.362C1182.37 589.551 1187.74 579.799 1192.03 568.205L1184.52 565.431ZM1169.7 592.26C1163.91 599.302 1157.25 604.437 1149.73 607.762L1152.96 615.079C1161.72 611.207 1169.36 605.263 1175.88 597.343L1169.7 592.26ZM1149.71 607.769C1142.25 611.106 1133.72 612.818 1124.07 612.818V620.818C1134.68 620.818 1144.34 618.932 1152.97 615.072L1149.71 607.769ZM1329.68 535H1325.68V539H1329.68V535ZM1329.68 244.091V240.091H1325.68V244.091H1329.68ZM1364.91 244.091H1368.91V240.091H1364.91V244.091ZM1364.91 503.75H1360.91V507.75H1364.91V503.75ZM1500.13 503.75H1504.13V499.75H1500.13V503.75ZM1500.13 535V539H1504.13V535H1500.13ZM1333.68 535V244.091H1325.68V535H1333.68ZM1329.68 248.091H1364.91V240.091H1329.68V248.091ZM1360.91 244.091V503.75H1368.91V244.091H1360.91ZM1364.91 507.75H1500.13V499.75H1364.91V507.75ZM1496.13 503.75V535H1504.13V503.75H1496.13ZM1500.13 531H1329.68V539H1500.13V531ZM1550.13 535H1546.13V539H1550.13V535ZM1550.13 316.818V312.818H1546.13V316.818H1550.13ZM1583.66 316.818H1587.66V312.818H1583.66V316.818ZM1583.66 535V539H1587.66V535H1583.66ZM1550.28 273.778L1547.51 276.665L1547.52 276.679L1547.54 276.693L1550.28 273.778ZM1550.28 241.676L1547.54 238.762L1547.52 238.775L1547.51 238.789L1550.28 241.676ZM1583.94 241.676L1581.17 244.563L1581.19 244.577L1581.2 244.591L1583.94 241.676ZM1583.94 273.778L1581.2 270.864L1581.19 270.878L1581.17 270.892L1583.94 273.778ZM1554.13 535V316.818H1546.13V535H1554.13ZM1550.13 320.818H1583.66V312.818H1550.13V320.818ZM1579.66 316.818V535H1587.66V316.818H1579.66ZM1583.66 531H1550.13V539H1583.66V531ZM1567.18 276.455C1561.66 276.455 1557.01 274.613 1553.02 270.864L1547.54 276.693C1553.02 281.845 1559.63 284.455 1567.18 284.455V276.455ZM1553.05 270.892C1549.17 267.171 1547.32 262.853 1547.32 257.727H1539.32C1539.32 265.102 1542.11 271.484 1547.51 276.665L1553.05 270.892ZM1547.32 257.727C1547.32 252.602 1549.17 248.284 1553.05 244.563L1547.51 238.789C1542.11 243.97 1539.32 250.353 1539.32 257.727H1547.32ZM1553.02 244.591C1557.01 240.841 1561.66 239 1567.18 239V231C1559.63 231 1553.02 233.609 1547.54 238.762L1553.02 244.591ZM1567.18 239C1572.7 239 1577.29 240.839 1581.17 244.563L1586.71 238.789C1581.31 233.611 1574.73 231 1567.18 231V239ZM1581.2 244.591C1585.17 248.319 1587.04 252.63 1587.04 257.727H1595.04C1595.04 250.325 1592.18 243.935 1586.68 238.762L1581.2 244.591ZM1587.04 257.727C1587.04 262.825 1585.17 267.135 1581.2 270.864L1586.68 276.693C1592.18 271.52 1595.04 265.13 1595.04 257.727H1587.04ZM1581.17 270.892C1577.29 274.615 1572.7 276.455 1567.18 276.455V284.455C1574.73 284.455 1581.31 281.843 1586.71 276.665L1581.17 270.892ZM1645.06 616.818H1641.06V620.818H1645.06V616.818ZM1645.06 316.818V312.818H1641.06V316.818H1645.06ZM1677.44 316.818H1681.44V312.818H1677.44V316.818ZM1677.44 351.477H1673.44V355.477H1677.44V351.477ZM1681.42 351.477V355.477H1683.59L1684.77 353.657L1681.42 351.477ZM1691.65 336.989L1688.44 334.597L1688.44 334.605L1691.65 336.989ZM1710.68 321.08L1712.64 324.565L1712.65 324.561L1712.66 324.557L1710.68 321.08ZM1793.07 327.756L1795.26 324.41L1795.26 324.41L1793.07 327.756ZM1825.88 366.818L1829.51 365.128L1829.51 365.128L1825.88 366.818ZM1825.88 486.562L1829.51 488.253L1829.51 488.245L1825.88 486.562ZM1793.21 525.767L1795.41 529.106L1795.42 529.1L1795.43 529.095L1793.21 525.767ZM1711.39 532.585L1709.43 536.073L1709.45 536.081L1709.46 536.089L1711.39 532.585ZM1691.93 516.534L1688.73 518.934L1688.74 518.946L1688.75 518.958L1691.93 516.534ZM1681.42 501.477L1684.82 499.372L1683.65 497.477H1681.42V501.477ZM1678.58 501.477V497.477H1674.58V501.477H1678.58ZM1678.58 616.818V620.818H1682.58V616.818H1678.58ZM1685.26 469.517L1681.52 470.949L1681.52 470.959L1685.26 469.517ZM1706.42 498.92L1703.99 502.097L1704 502.105L1704.01 502.113L1706.42 498.92ZM1775.6 498.352L1778.07 501.494L1778.08 501.491L1775.6 498.352ZM1796.9 468.239L1793.17 466.816L1793.16 466.823L1793.16 466.831L1796.9 468.239ZM1797.05 384.432L1793.3 385.833L1793.31 385.85L1793.31 385.868L1797.05 384.432ZM1775.88 355.028L1773.42 358.186L1773.44 358.2L1773.46 358.213L1775.88 355.028ZM1706.14 354.46L1708.5 357.684L1708.52 357.676L1708.53 357.668L1706.14 354.46ZM1685.11 383.153L1688.84 384.599L1688.85 384.589L1685.11 383.153ZM1649.06 616.818V316.818H1641.06V616.818H1649.06ZM1645.06 320.818H1677.44V312.818H1645.06V320.818ZM1673.44 316.818V351.477H1681.44V316.818H1673.44ZM1677.44 355.477H1681.42V347.477H1677.44V355.477ZM1684.77 353.657C1687.17 349.967 1690.53 345.212 1694.86 339.372L1688.44 334.605C1684.06 340.508 1680.59 345.411 1678.07 349.297L1684.77 353.657ZM1694.85 339.38C1698.89 333.965 1704.77 329.003 1712.64 324.565L1708.72 317.594C1700.12 322.437 1693.3 328.08 1688.44 334.597L1694.85 339.38ZM1712.66 324.557C1720.17 320.291 1730.67 317.977 1744.49 317.977V309.977C1729.9 309.977 1717.86 312.399 1708.71 317.602L1712.66 324.557ZM1744.49 317.977C1762.16 317.977 1777.57 322.383 1790.88 331.101L1795.26 324.41C1780.53 314.757 1763.56 309.977 1744.49 309.977V317.977ZM1790.88 331.101C1804.2 339.835 1814.67 352.25 1822.26 368.509L1829.51 365.128C1821.37 347.674 1809.97 334.047 1795.26 324.41L1790.88 331.101ZM1822.26 368.509C1829.82 384.727 1833.67 404.012 1833.67 426.477H1841.67C1841.67 403.109 1837.66 382.621 1829.51 365.128L1822.26 368.509ZM1833.67 426.477C1833.67 449.136 1829.82 468.566 1822.25 484.88L1829.51 488.245C1837.66 470.658 1841.67 450.03 1841.67 426.477H1833.67ZM1822.26 484.872C1814.67 501.14 1804.24 513.61 1790.99 522.439L1795.43 529.095C1810.03 519.364 1821.37 505.697 1829.51 488.253L1822.26 484.872ZM1791.01 522.428C1777.8 531.144 1762.53 535.545 1745.06 535.545V543.545C1763.95 543.545 1780.78 538.762 1795.41 529.106L1791.01 522.428ZM1745.06 535.545C1731.43 535.545 1720.95 533.281 1713.32 529.081L1709.46 536.089C1718.69 541.17 1730.65 543.545 1745.06 543.545V535.545ZM1713.35 529.098C1705.27 524.556 1699.25 519.536 1695.11 514.11L1688.75 518.958C1693.71 525.464 1700.66 531.144 1709.43 536.073L1713.35 529.098ZM1695.13 514.134C1690.62 508.118 1687.19 503.206 1684.82 499.372L1678.02 503.583C1680.57 507.703 1684.15 512.829 1688.73 518.934L1695.13 514.134ZM1681.42 497.477H1678.58V505.477H1681.42V497.477ZM1674.58 501.477V616.818H1682.58V501.477H1674.58ZM1678.58 612.818H1645.06V620.818H1678.58V612.818ZM1674.01 425.909C1674.01 442.771 1676.48 457.809 1681.52 470.949L1688.99 468.085C1684.37 456.036 1682.01 442.002 1682.01 425.909H1674.01ZM1681.52 470.959C1686.58 484.043 1694.04 494.485 1703.99 502.097L1708.85 495.744C1700.24 489.152 1693.59 479.991 1688.99 468.075L1681.52 470.959ZM1704.01 502.113C1714.09 509.724 1726.34 513.432 1740.51 513.432V505.432C1727.79 505.432 1717.31 502.132 1708.83 495.728L1704.01 502.113ZM1740.51 513.432C1755.26 513.432 1767.87 509.53 1778.07 501.494L1773.12 495.21C1764.57 501.948 1753.79 505.432 1740.51 505.432V513.432ZM1778.08 501.491C1788.18 493.508 1795.69 482.842 1800.65 469.646L1793.16 466.831C1788.65 478.825 1781.95 488.234 1773.12 495.214L1778.08 501.491ZM1800.64 469.661C1805.67 456.457 1808.15 441.856 1808.15 425.909H1800.15C1800.15 441.022 1797.8 454.641 1793.17 466.816L1800.64 469.661ZM1808.15 425.909C1808.15 410.156 1805.72 395.833 1800.78 382.996L1793.31 385.868C1797.84 397.652 1800.15 410.98 1800.15 425.909H1808.15ZM1800.79 383.03C1795.92 370 1788.44 359.549 1778.3 351.844L1773.46 358.213C1782.26 364.902 1788.89 374.053 1793.3 385.833L1800.79 383.03ZM1778.34 351.871C1768.13 343.932 1755.43 340.091 1740.51 340.091V348.091C1754.01 348.091 1764.88 351.541 1773.42 358.186L1778.34 351.871ZM1740.51 340.091C1726.17 340.091 1713.83 343.738 1703.75 351.252L1708.53 357.668C1717 351.357 1727.58 348.091 1740.51 348.091V340.091ZM1703.77 351.237C1693.79 358.571 1686.35 368.799 1681.38 381.717L1688.85 384.589C1693.35 372.886 1699.93 363.986 1708.5 357.684L1703.77 351.237ZM1681.38 381.708C1676.43 394.482 1674.01 409.243 1674.01 425.909H1682.01C1682.01 410 1684.32 396.257 1688.84 384.599L1681.38 381.708ZM2043.35 365.682L2044.44 369.531L2048.48 368.388L2047.14 364.41L2043.35 365.682ZM2013.24 374.205L2009.5 375.617L2010.79 379.054L2014.33 378.053L2013.24 374.205ZM2004.86 359.574L2001.65 361.964L2001.68 361.999L2001.7 362.034L2004.86 359.574ZM1990.09 347.642L1991.87 344.064L1991.87 344.064L1990.09 347.642ZM1932.7 352.188L1934.97 355.483L1934.97 355.478L1932.7 352.188ZM1928.58 395.085L1926.09 398.213L1926.09 398.213L1928.58 395.085ZM1956.99 407.159L1956.02 411.04L1956.03 411.042L1956.03 411.044L1956.99 407.159ZM1989.38 415.114L1988.42 418.998L1988.43 419.001L1989.38 415.114ZM2032.98 436.847L2030.13 439.647L2030.13 439.654L2030.14 439.661L2032.98 436.847ZM2036.53 507.727L2033.3 505.367L2033.3 505.377L2033.29 505.388L2036.53 507.727ZM1906.85 525.057L1909.06 521.722L1909.06 521.722L1906.85 525.057ZM1879.15 482.727L1878.18 478.847L1874.44 479.78L1875.23 483.546L1879.15 482.727ZM1910.97 474.773L1914.84 473.773L1913.85 469.929L1910 470.892L1910.97 474.773ZM1928.15 501.193L1925.87 504.475L1925.88 504.481L1925.88 504.487L1928.15 501.193ZM1998.75 500.057L2001.09 503.3L2001.1 503.296L1998.75 500.057ZM2004.72 456.875L2001.91 459.729L2001.93 459.742L2001.94 459.754L2004.72 456.875ZM1980.28 445.227L1979.37 449.122L1979.38 449.123L1980.28 445.227ZM1943.92 436.705L1943 440.597L1943.01 440.599L1943.92 436.705ZM1899.89 414.688L1896.95 417.403L1896.96 417.417L1896.98 417.432L1899.89 414.688ZM1896.34 344.375L1893.12 341.996L1893.11 342.006L1893.1 342.017L1896.34 344.375ZM1924.89 322.074L1923.26 318.42L1923.25 318.425L1924.89 322.074ZM2016.93 328.182L2014.49 331.352L2014.5 331.357L2014.5 331.361L2016.93 328.182ZM2042.26 361.833L2012.15 370.356L2014.33 378.053L2044.44 369.531L2042.26 361.833ZM2016.98 372.792C2014.93 367.354 2011.92 362.129 2008.01 357.114L2001.7 362.034C2005.18 366.489 2007.76 371.017 2009.5 375.617L2016.98 372.792ZM2008.07 357.184C2004.04 351.778 1998.59 347.424 1991.87 344.064L1988.3 351.22C1994.08 354.11 1998.48 357.71 2001.65 361.964L2008.07 357.184ZM1991.87 344.064C1984.89 340.574 1976.22 338.955 1966.08 338.955V346.955C1975.44 346.955 1982.78 348.46 1988.3 351.22L1991.87 344.064ZM1966.08 338.955C1952.11 338.955 1940.14 342.182 1930.42 348.897L1934.97 355.478C1943.06 349.883 1953.35 346.955 1966.08 346.955V338.955ZM1930.43 348.892C1920.72 355.578 1915.49 364.449 1915.49 375.341H1923.49C1923.49 367.483 1927.07 360.918 1934.97 355.483L1930.43 348.892ZM1915.49 375.341C1915.49 384.787 1918.99 392.562 1926.09 398.213L1931.07 391.957C1926.04 387.95 1923.49 382.562 1923.49 375.341H1915.49ZM1926.09 398.213C1932.81 403.568 1942.93 407.766 1956.02 411.04L1957.96 403.279C1945.29 400.112 1936.47 396.261 1931.07 391.957L1926.09 398.213ZM1956.03 411.044L1988.42 418.998L1990.33 411.229L1957.94 403.275L1956.03 411.044ZM1988.43 419.001C2007.53 423.637 2021.28 430.622 2030.13 439.647L2035.84 434.046C2025.56 423.564 2010.23 416.06 1990.32 411.226L1988.43 419.001ZM2030.14 439.661C2038.87 448.477 2043.33 459.873 2043.33 474.205H2051.33C2051.33 458.044 2046.22 444.534 2035.83 434.032L2030.14 439.661ZM2043.33 474.205C2043.33 485.879 2039.99 496.222 2033.3 505.367L2039.76 510.087C2047.47 499.536 2051.33 487.53 2051.33 474.205H2043.33ZM2033.29 505.388C2026.66 514.579 2017.32 521.929 2005.08 527.367L2008.33 534.678C2021.66 528.753 2032.2 520.572 2039.78 510.067L2033.29 505.388ZM2005.08 527.367C1992.9 532.779 1978.61 535.545 1962.1 535.545V543.545C1979.5 543.545 1994.94 540.63 2008.33 534.678L2005.08 527.367ZM1962.1 535.545C1940.42 535.545 1922.83 530.843 1909.06 521.722L1904.64 528.392C1920.03 538.589 1939.28 543.545 1962.1 543.545V535.545ZM1909.06 521.722C1895.43 512.696 1886.75 499.534 1883.06 481.908L1875.23 483.546C1879.31 503.042 1889.1 518.1 1904.64 528.392L1909.06 521.722ZM1880.12 486.608L1911.94 478.653L1910 470.892L1878.18 478.847L1880.12 486.608ZM1907.09 475.772C1910.32 488.265 1916.52 497.962 1925.87 504.475L1930.44 497.911C1922.93 492.682 1917.68 484.766 1914.84 473.773L1907.09 475.772ZM1925.88 504.487C1935.26 510.947 1947.25 514 1961.53 514V506C1948.35 506 1938.09 503.182 1930.42 497.899L1925.88 504.487ZM1961.53 514C1977.69 514 1991.01 510.576 2001.09 503.3L1996.41 496.813C1988.12 502.795 1976.63 506 1961.53 506V514ZM2001.1 503.296C2011.16 496.008 2016.67 486.857 2016.67 475.909H2008.67C2008.67 483.712 2004.9 490.658 1996.4 496.818L2001.1 503.296ZM2016.67 475.909C2016.67 467.282 2013.6 459.887 2007.49 453.996L2001.94 459.754C2006.44 464.09 2008.67 469.385 2008.67 475.909H2016.67ZM2007.52 454.021C2001.49 448.097 1992.55 443.975 1981.19 441.331L1979.38 449.123C1989.99 451.593 1997.34 455.236 2001.91 459.729L2007.52 454.021ZM1981.2 441.333L1944.83 432.81L1943.01 440.599L1979.37 449.122L1981.2 441.333ZM1944.84 432.812C1925.26 428.173 1911.43 421.099 1902.8 411.943L1896.98 417.432C1907.09 428.162 1922.61 435.766 1943 440.597L1944.84 432.812ZM1902.82 411.972C1894.3 402.751 1889.97 391.206 1889.97 377.045H1881.97C1881.97 392.998 1886.91 406.548 1896.95 417.403L1902.82 411.972ZM1889.97 377.045C1889.97 365.537 1893.18 355.483 1899.57 346.733L1893.1 342.017C1885.67 352.207 1881.97 363.932 1881.97 377.045H1889.97ZM1899.55 346.754C1906.1 337.9 1915.05 330.874 1926.52 325.723L1923.25 318.425C1910.67 324.069 1900.58 331.911 1893.12 341.996L1899.55 346.754ZM1926.51 325.728C1938.05 320.591 1951.21 317.977 1966.08 317.977V309.977C1950.26 309.977 1935.97 312.761 1923.26 318.42L1926.51 325.728ZM1966.08 317.977C1987.13 317.977 2003.11 322.595 2014.49 331.352L2019.37 325.011C2006.13 314.829 1988.21 309.977 1966.08 309.977V317.977ZM2014.5 331.361C2026.24 340.321 2034.59 352.142 2039.56 366.954L2047.14 364.41C2041.7 348.161 2032.43 334.982 2019.36 325.002L2014.5 331.361Z" fill="black" mask="url(#path-8-outside-1_2_14)"/>
</g>
<defs>
<filter id="filter0_ii_2_14" x="0" y="-20" width="778" height="818" filterUnits="userSpaceOnUse" color-interpolation-filters="sRGB">
<feFlood flood-opacity="0" result="BackgroundImageFix"/>
<feBlend mode="normal" in="SourceGraphic" in2="BackgroundImageFix" result="shape"/>
<feColorMatrix in="SourceAlpha" type="matrix" values="0 0 0 0 0 0 0 0 0 0 0 0 0 0 0 0 0 0 127 0" result="hardAlpha"/>
<feOffset dy="30"/>
<feGaussianBlur stdDeviation="10"/>
<feComposite in2="hardAlpha" operator="arithmetic" k2="-1" k3="1"/>
<feColorMatrix type="matrix" values="0 0 0 0 0 0 0 0 0 0 0 0 0 0 0 0 0 0 0.25 0"/>
<feBlend mode="normal" in2="shape" result="effect1_innerShadow_2_14"/>
<feColorMatrix in="SourceAlpha" type="matrix" values="0 0 0 0 0 0 0 0 0 0 0 0 0 0 0 0 0 0 127 0" result="hardAlpha"/>
<feOffset dy="-30"/>
<feGaussianBlur stdDeviation="10"/>
<feComposite in2="hardAlpha" operator="arithmetic" k2="-1" k3="1"/>
<feColorMatrix type="matrix" values="0 0 0 0 0 0 0 0 0 0 0 0 0 0 0 0 0 0 0.25 0"/>
<feBlend mode="normal" in2="effect1_innerShadow_2_14" result="effect2_innerShadow_2_14"/>
</filter>
<filter id="filter1_d_2_14" x="818.618" y="204.5" width="1263.21" height="450.818" filterUnits="userSpaceOnUse" color-interpolation-filters="sRGB">
<feFlood flood-opacity="0" result="BackgroundImageFix"/>
<feColorMatrix in="SourceAlpha" type="matrix" values="0 0 0 0 0 0 0 0 0 0 0 0 0 0 0 0 0 0 127 0" result="hardAlpha"/>
<feOffset dy="4"/>
<feGaussianBlur stdDeviation="17.25"/>
<feComposite in2="hardAlpha" operator="out"/>
<feColorMatrix type="matrix" values="0 0 0 0 0 0 0 0 0 0 0 0 0 0 0 0 0 0 1 0"/>
<feBlend mode="normal" in2="BackgroundImageFix" result="effect1_dropShadow_2_14"/>
<feBlend mode="normal" in="SourceGraphic" in2="effect1_dropShadow_2_14" result="shape"/>
</filter>
<radialGradient id="paint0_radial_2_14" cx="0" cy="0" r="1" gradientUnits="userSpaceOnUse" gradientTransform="translate(389 389) rotate(90) scale(389)">
<stop stop-color="#3FA3FF"/>
<stop offset="0.93" stop-color="#095192"/>
</radialGradient>
<radialGradient id="paint1_radial_2_14" cx="0" cy="0" r="1" gradientUnits="userSpaceOnUse" gradientTransform="translate(388 21) rotate(90) scale(214 446.454)">
<stop stop-color="#0085FF" stop-opacity="0.22"/>
<stop offset="1" stop-color="white" stop-opacity="0.6"/>
</radialGradient>
<radialGradient id="paint2_radial_2_14" cx="0" cy="0" r="1" gradientUnits="userSpaceOnUse" gradientTransform="translate(390 689) rotate(-90.2104) scale(272.313 568.109)">
<stop stop-color="white"/>
<stop offset="1" stop-color="#0085FF" stop-opacity="0"/>
</radialGradient>
<linearGradient id="paint3_linear_2_14" x1="391.073" y1="405.782" x2="391.073" y2="590.324" gradientUnits="userSpaceOnUse">
<stop offset="0.212736" stop-color="#C96DB0" stop-opacity="0.78"/>
<stop offset="1" stop-color="#782F63"/>
</linearGradient>
<linearGradient id="paint4_linear_2_14" x1="390" y1="159.076" x2="390" y2="404.897" gradientUnits="userSpaceOnUse">
<stop offset="0.105" stop-color="#FEC6EE"/>
<stop offset="0.24" stop-color="#FEA0E4"/>
<stop offset="1" stop-color="#923D7A"/>
</linearGradient>
<linearGradient id="paint5_linear_2_14" x1="1442.5" y1="121" x2="1442.5" y2="658" gradientUnits="userSpaceOnUse">
<stop stop-color="#012C53"/>
<stop offset="0.485" stop-color="#3FA3FF"/>
<stop offset="1" stop-color="#031E38"/>
</linearGradient>
<clipPath id="clip0_2_14">
<rect width="778" height="778" rx="389" fill="white"/>
</clipPath>
</defs>
</svg>
